<svg width="256" height="256" viewBox="0 0 256 256" fill="none" xmlns="http://www.w3.org/2000/svg">
<path opacity="0.2" d="M97.8209 254.917C93.6003 253.916 90.0679 251.576 85.1245 246.504C76.8672 238.034 70.1663 234.507 58.5193 232.502C46.4371 230.422 41.068 225.931 37.84 215.205C33.8555 201.964 29.691 195.624 20.5409 188.865C10.1609 181.198 7.49764 174.437 10.0312 162.185C12.3778 150.837 11.4792 142.769 6.71336 132.395C1.02709 120.018 1.72904 113.405 9.80523 103.265C17.2092 93.9685 19.533 87.8238 20.6418 74.6105C21.7608 61.2764 25.4706 55.8058 36.3965 51.3786C45.515 47.6838 53.3156 41.2697 57.6404 33.9107C62.6415 25.4011 63.3716 24.4256 66.4702 22.1138C71.4704 18.3831 75.5133 17.3492 83.2129 17.8321C96.5878 18.6708 103.756 17.0648 112.738 11.2178C124.449 3.59408 131.55 3.59408 143.261 11.2178C152.242 17.0648 159.411 18.6708 172.786 17.8321C185.434 17.039 190.696 20.3592 198.406 33.9956C202.227 40.7536 210.036 47.3306 218.583 50.9882C230.756 56.198 234.294 60.9529 235.192 73.3095C236.164 86.6917 238.908 94.1738 246.177 103.265C254.271 113.387 254.977 120.007 249.285 132.395C244.519 142.769 243.621 150.837 245.968 162.185C248.501 174.437 245.838 181.198 235.458 188.865C226.308 195.624 222.143 201.964 218.159 215.205C214.931 225.931 209.562 230.422 197.479 232.502C185.808 234.511 179.099 238.049 170.874 246.531C161.756 255.935 155.22 257.486 142.473 253.272C132.047 249.826 124.02 249.811 113.636 253.22C106.362 255.607 102.484 256.023 97.8209 254.917V254.917Z" fill="black"/>
<path d="M97.8209 252.417C93.6003 251.416 90.0679 249.076 85.1245 244.004C76.8672 235.534 70.1663 232.007 58.5193 230.002C46.4371 227.922 41.068 223.431 37.84 212.705C33.8555 199.464 29.691 193.124 20.5409 186.365C10.1609 178.698 7.49764 171.937 10.0312 159.685C12.3778 148.337 11.4792 140.269 6.71336 129.895C1.02709 117.518 1.72904 110.905 9.80523 100.765C17.2092 91.4685 19.533 85.3238 20.6418 72.1105C21.7608 58.7764 25.4706 53.3058 36.3965 48.8786C45.515 45.1838 53.3156 38.7697 57.6404 31.4107C62.6415 22.9011 63.3716 21.9256 66.4702 19.6138C71.4704 15.8831 75.5133 14.8492 83.2129 15.3321C96.5878 16.1708 103.756 14.5648 112.738 8.71775C124.449 1.09408 131.55 1.09408 143.261 8.71775C152.242 14.5648 159.411 16.1708 172.786 15.3321C185.434 14.539 190.696 17.8592 198.406 31.4956C202.227 38.2536 210.036 44.8306 218.583 48.4882C230.756 53.698 234.294 58.4529 235.192 70.8095C236.164 84.1917 238.908 91.6738 246.177 100.765C254.271 110.887 254.977 117.507 249.285 129.895C244.519 140.269 243.621 148.337 245.968 159.685C248.501 171.937 245.838 178.698 235.458 186.365C226.308 193.124 222.143 199.464 218.159 212.705C214.931 223.431 209.562 227.922 197.479 230.002C185.808 232.011 179.099 235.549 170.874 244.031C161.756 253.435 155.22 254.986 142.473 250.772C132.047 247.326 124.02 247.311 113.636 250.72C106.362 253.107 102.484 253.523 97.8209 252.417V252.417Z" fill="#073042"/>
<path d="M174.054 112.598C173.305 111.052 173.942 109.172 175.504 108.407C177.05 107.658 178.931 108.295 179.696 109.857C180.445 111.403 179.807 113.284 178.245 114.049C176.684 114.814 174.819 114.16 174.054 112.598ZM189.179 143.725C188.43 142.179 189.067 140.299 190.629 139.534C192.191 138.769 194.056 139.422 194.821 140.984C195.586 142.546 194.932 144.411 193.371 145.176C191.809 145.941 189.944 145.287 189.179 143.725ZM190.518 103.354C180.572 96.2461 167.567 94.3973 155.55 99.0352L188.414 166.66C199.507 160.078 206.073 148.714 206.631 136.489L219.11 137.382C219.828 137.43 220.449 136.888 220.497 136.171C220.545 135.454 220.003 134.832 219.286 134.784L206.647 133.876C206.519 128.552 205.244 123.118 202.71 117.906C200.176 112.678 196.686 108.327 192.574 104.932L199.682 94.4451C200.08 93.8554 199.921 93.0425 199.331 92.6441C198.742 92.2456 197.929 92.405 197.53 92.9947L190.518 103.354" fill="#3DDC84"/>
<path d="M121.904 73.8372C121.904 70.4743 124.63 67.7489 127.993 67.7489C131.355 67.7489 134.081 70.4743 134.081 73.8372C134.081 77.2001 131.355 79.9255 127.993 79.9255C124.63 79.9255 121.904 77.2001 121.904 73.8372Z" fill="white"/>
<path d="M193.593 181.068C193.53 178.454 192.924 175.92 191.777 173.577L147.995 83.4797C149.413 80.563 150.226 77.2957 150.226 73.8372C150.226 64.9119 144.919 57.2139 137.301 53.6757V41.3078C137.301 36.1758 133.125 32 127.993 32C122.861 32 118.685 36.1758 118.685 41.3078V53.6757C111.067 57.1979 105.759 64.896 105.759 73.8372C105.759 77.2957 106.572 80.5471 107.991 83.4797L89.4388 121.651C83.0636 116.997 77.6765 111.339 73.3733 104.773C72.4808 103.418 71.0623 102.478 69.4525 102.175C67.8428 101.888 66.1693 102.271 64.8624 103.243L52.9249 112.041C50.3429 113.937 49.7373 117.523 51.5223 120.201C58.3438 130.385 67.3328 139.247 77.6128 145.988L64.2089 173.561C63.0614 175.92 62.4558 178.438 62.392 181.052L62.1211 193.005C62.0573 195.556 63.4599 197.835 65.7549 198.966C68.05 200.082 70.7116 199.763 72.688 198.153L81.932 190.551C83.9242 188.909 85.5818 186.822 86.7134 184.495L100.213 156.699C109.234 159.552 118.605 161.002 128.104 161.002C137.603 161.002 146.895 159.584 155.805 156.763L169.272 184.495C170.42 186.853 172.029 188.878 174.054 190.551L183.298 198.153C184.493 199.126 185.927 199.636 187.378 199.636C188.334 199.636 189.306 199.413 190.215 198.966C192.51 197.851 193.896 195.571 193.849 193.005L193.578 181.052L193.593 181.068ZM124.391 41.3237C124.391 39.3315 126.016 37.7058 128.009 37.7058C130.001 37.7058 131.627 39.3315 131.627 41.3237V51.9384C130.447 51.7472 129.236 51.6197 128.009 51.6197C126.781 51.6197 125.57 51.7472 124.391 51.9384V41.3237ZM128.009 57.2936C137.125 57.2936 144.552 64.7207 144.552 73.8372C144.552 82.9537 137.141 90.3808 128.009 90.3808C118.876 90.3808 111.465 82.9537 111.465 73.8372C111.465 64.7207 118.892 57.2936 128.009 57.2936ZM143.947 132.361C133.603 134.943 122.59 134.943 112.103 132.298L128.009 99.5611L143.947 132.361ZM187.744 193.866C187.537 193.962 187.234 194.026 186.915 193.771L177.671 186.168C176.285 185.036 175.185 183.634 174.404 182.024L158.737 149.798L156.346 150.626C147.31 153.75 137.811 155.344 128.12 155.344C118.43 155.344 108.851 153.734 99.7028 150.563L97.3121 149.734L81.6132 182.04C80.8482 183.634 79.7166 185.068 78.3459 186.184L69.1019 193.771C68.7831 194.041 68.4644 193.962 68.2731 193.866C68.0659 193.77 67.8269 193.563 67.8428 193.149L68.1137 181.195C68.1616 179.394 68.576 177.673 69.3569 176.063L84.9921 143.885L82.7926 142.53C72.2895 136.075 63.1252 127.261 56.2718 117.045C56.1762 116.902 56.1921 116.71 56.3196 116.631L68.2572 107.833C68.2572 107.833 68.3847 107.769 68.4803 107.785C68.5919 107.801 68.6238 107.865 68.6397 107.897C73.963 116.009 80.8163 122.862 89.0084 128.265L91.7179 130.05L111.704 88.9145C114.812 92.2774 118.94 94.7 123.61 95.6404L104.054 135.884L107.226 136.856C114.047 138.944 121.076 140.012 128.12 140.012C135.165 140.012 142.13 138.976 148.824 136.936L152.011 135.963L132.424 95.6404C137.093 94.7 141.205 92.2774 144.329 88.9145L186.692 176.079C187.473 177.689 187.888 179.41 187.936 181.211L188.206 193.165C188.206 193.579 187.967 193.786 187.776 193.882L187.744 193.866Z" fill="white"/>
</svg>
